<?xml version="1.0" standalone="no"?>
<!DOCTYPE svg PUBLIC "-//W3C//DTD SVG 20010904//EN"
 "http://www.w3.org/TR/2001/REC-SVG-20010904/DTD/svg10.dtd">
<svg version="1.0" xmlns="http://www.w3.org/2000/svg"
 width="2204.000000pt" height="2203.000000pt" viewBox="0 0 2204.000000 2203.000000"
 preserveAspectRatio="xMidYMid meet">

<g transform="translate(0.000000,2203.000000) scale(0.100000,-0.100000)"
fill="#000000" stroke="none">
<path d="M10630 22020 c-2757 -98 -5358 -1216 -7324 -3150 -916 -902 -1622
-1880 -2185 -3031 -561 -1147 -914 -2370 -1050 -3644 -71 -660 -81 -1453 -25
-2105 214 -2523 1267 -4857 3020 -6692 1043 -1091 2329 -1974 3714 -2551 2203
-916 4643 -1094 6953 -508 1050 267 2031 675 2961 1234 1220 732 2325 1736
3178 2887 1218 1644 1949 3579 2122 5620 53 617 47 1406 -14 2030 -190 1927
-904 3804 -2045 5370 -359 493 -678 864 -1134 1321 -564 563 -1050 962 -1701
1394 -1915 1272 -4164 1906 -6470 1825z m881 -1050 c1375 -69 2661 -400 3884
-999 1430 -701 2642 -1703 3600 -2976 1036 -1378 1696 -3003 1914 -4715 55
-434 75 -762 75 -1265 0 -437 -8 -619 -45 -995 -161 -1639 -726 -3204 -1650
-4575 -1380 -2048 -3477 -3517 -5869 -4110 -860 -213 -1762 -308 -2689 -284
-2541 68 -4939 1100 -6747 2904 -946 944 -1665 2017 -2179 3250 -419 1006
-659 2054 -737 3215 -26 397 -14 1076 28 1530 257 2787 1690 5347 3939 7034
1594 1197 3476 1881 5460 1985 235 12 782 13 1016 1z"/>
<path d="M13570 16193 c-41 -2 -77 -7 -80 -12 -3 -4 -63 -13 -135 -20 -71 -7
-132 -16 -135 -21 -3 -5 -33 -12 -68 -16 -34 -3 -62 -10 -62 -13 0 -4 -34 -13
-75 -20 -41 -7 -75 -16 -75 -20 0 -4 -31 -13 -70 -20 -38 -7 -70 -17 -70 -21
0 -5 -18 -11 -40 -15 -22 -4 -40 -11 -40 -16 0 -5 -7 -9 -15 -9 -23 0 -95 -24
-95 -31 0 -4 -22 -12 -50 -19 -27 -7 -50 -16 -50 -21 0 -4 -16 -11 -35 -15
-19 -3 -35 -10 -35 -14 0 -4 -18 -13 -40 -20 -22 -7 -40 -16 -40 -20 0 -4 -18
-12 -40 -19 -22 -6 -40 -16 -40 -21 0 -4 -13 -11 -30 -15 -16 -4 -30 -10 -30
-14 0 -4 -16 -13 -35 -21 -19 -8 -35 -17 -35 -21 0 -4 -10 -9 -23 -13 -13 -3
-34 -15 -47 -26 -13 -11 -29 -20 -37 -20 -7 0 -13 -4 -13 -9 0 -5 -13 -14 -30
-21 -16 -7 -30 -16 -30 -20 0 -4 -15 -13 -32 -21 -18 -7 -37 -19 -41 -26 -4
-7 -13 -13 -20 -13 -7 0 -18 -9 -25 -20 -7 -11 -17 -20 -23 -20 -5 0 -19 -9
-31 -20 -12 -11 -27 -20 -33 -20 -6 0 -17 -11 -25 -24 -7 -14 -23 -27 -36 -30
-13 -4 -28 -15 -34 -26 -6 -11 -16 -20 -22 -20 -6 0 -33 -22 -60 -50 -27 -27
-52 -50 -57 -50 -11 0 -261 -249 -261 -260 0 -5 -20 -28 -45 -52 -25 -24 -45
-48 -45 -53 0 -6 -13 -21 -30 -35 -16 -14 -30 -29 -30 -35 0 -6 -9 -18 -20
-28 -11 -9 -20 -23 -20 -32 0 -8 -9 -19 -20 -25 -11 -6 -20 -15 -20 -20 0 -6
-9 -19 -20 -30 -11 -11 -20 -27 -20 -35 0 -8 -5 -15 -10 -15 -6 0 -15 -11 -20
-25 -5 -14 -14 -25 -20 -25 -5 0 -10 -7 -10 -15 0 -9 -6 -18 -14 -21 -8 -3
-18 -19 -21 -36 -4 -16 -12 -31 -19 -34 -7 -3 -19 -20 -26 -39 -8 -19 -17 -35
-22 -35 -4 0 -8 -6 -8 -14 0 -8 -6 -21 -13 -28 -7 -7 -19 -28 -26 -45 -7 -18
-17 -33 -21 -33 -4 0 -13 -20 -20 -45 -7 -25 -16 -45 -21 -45 -5 0 -11 -11
-15 -25 -3 -14 -10 -25 -14 -25 -4 0 -13 -22 -20 -50 -7 -27 -16 -50 -21 -50
-5 0 -14 -20 -21 -45 -7 -25 -15 -45 -19 -45 -4 0 -10 -16 -13 -35 -4 -19 -10
-35 -15 -35 -4 0 -13 -25 -20 -55 -7 -30 -16 -55 -21 -55 -4 0 -14 -31 -20
-70 -6 -38 -16 -70 -21 -70 -4 0 -11 -22 -15 -50 -4 -27 -10 -50 -14 -50 -4 0
-13 -37 -20 -82 -7 -46 -16 -85 -20 -88 -8 -6 -30 -159 -30 -206 0 -20 -6 -34
-16 -38 -19 -7 -94 4 -94 14 0 4 -38 13 -85 20 -47 7 -85 16 -85 20 0 4 -34
13 -75 19 -41 7 -75 16 -75 21 0 5 -22 12 -50 16 -27 4 -50 10 -50 14 0 4 -29
14 -65 21 -36 7 -65 16 -65 20 0 6 -25 13 -97 26 -18 3 -33 9 -33 14 0 4 -16
11 -35 15 -19 3 -35 10 -35 14 0 4 -25 12 -55 19 -30 7 -55 16 -55 20 0 4 -23
13 -52 21 -29 7 -58 19 -66 26 -7 8 -24 14 -38 14 -13 0 -24 5 -24 10 0 6 -20
15 -45 22 -25 7 -45 15 -45 19 0 4 -22 13 -50 20 -28 7 -50 16 -50 20 0 4 -11
10 -25 13 -14 4 -25 10 -25 15 0 5 -20 14 -45 21 -25 7 -45 16 -45 21 0 4 -18
14 -40 20 -22 7 -40 15 -40 19 0 5 -11 11 -25 14 -14 4 -25 10 -25 15 0 5 -20
14 -45 21 -25 7 -45 16 -45 20 0 5 -13 13 -30 19 -16 5 -30 14 -30 20 0 5 -13
12 -30 16 -16 4 -30 10 -30 14 0 4 -16 13 -35 20 -19 7 -35 16 -35 21 0 4 -10
10 -23 14 -13 3 -34 15 -47 26 -13 11 -29 20 -37 20 -7 0 -13 4 -13 9 0 5 -15
14 -32 22 -18 7 -37 19 -41 26 -4 7 -14 13 -21 13 -7 0 -23 9 -36 20 -13 11
-29 20 -37 20 -7 0 -13 5 -13 11 0 5 -13 15 -30 20 -16 6 -30 15 -30 19 0 5
-9 12 -21 15 -11 4 -32 19 -48 33 -15 15 -40 34 -57 42 -16 8 -33 21 -37 27
-4 7 -15 13 -23 13 -8 0 -22 9 -31 20 -10 11 -22 20 -28 20 -6 0 -16 9 -23 20
-7 11 -17 20 -23 20 -5 0 -19 9 -31 20 -12 11 -27 20 -33 20 -6 0 -18 11 -25
25 -7 13 -23 28 -34 31 -12 4 -30 15 -41 26 -49 47 -98 88 -106 88 -4 0 -25
18 -47 40 -21 22 -42 40 -45 40 -4 0 -36 29 -72 65 -36 36 -69 65 -74 65 -4 0
-17 10 -28 23 -11 12 -29 29 -39 39 -10 9 -35 33 -55 55 -20 21 -45 45 -55 55
-11 9 -35 33 -55 55 -20 21 -45 45 -55 54 -11 9 -37 37 -59 63 -22 25 -64 71
-92 101 -29 31 -53 58 -53 62 0 3 -18 24 -40 45 -22 22 -40 43 -40 48 0 5 -16
24 -35 43 -19 19 -35 37 -35 41 0 10 -86 96 -96 96 -5 0 -20 12 -33 25 -13 14
-29 25 -36 25 -7 0 -15 7 -19 15 -3 8 -12 15 -20 15 -7 0 -16 6 -19 14 -3 8
-19 17 -36 21 -17 4 -31 10 -31 15 0 4 -20 13 -45 19 -25 6 -45 15 -45 20 0 5
-21 12 -47 16 -27 4 -50 11 -53 15 -12 19 -227 32 -342 20 -62 -6 -115 -15
-118 -19 -3 -5 -24 -12 -47 -16 -24 -4 -43 -10 -43 -15 0 -4 -22 -13 -50 -20
-27 -7 -50 -15 -50 -19 0 -3 -15 -13 -32 -20 -18 -8 -38 -20 -45 -25 -33 -30
-43 -36 -52 -36 -5 0 -16 -8 -23 -18 -7 -11 -23 -24 -35 -31 -27 -14 -103 -89
-103 -101 0 -4 -11 -18 -25 -31 -13 -13 -25 -29 -25 -35 0 -7 -6 -14 -14 -17
-8 -3 -17 -19 -21 -35 -3 -17 -12 -33 -20 -35 -7 -3 -16 -19 -20 -36 -4 -17
-11 -31 -16 -31 -5 0 -11 -11 -15 -25 -3 -14 -9 -25 -14 -25 -4 0 -12 -18 -19
-40 -6 -22 -16 -40 -20 -40 -5 0 -14 -20 -21 -45 -7 -25 -16 -45 -21 -45 -5 0
-11 -11 -15 -25 -3 -14 -9 -25 -13 -25 -4 0 -13 -22 -20 -50 -7 -27 -16 -50
-20 -50 -4 0 -14 -25 -21 -55 -7 -30 -17 -55 -21 -55 -4 0 -10 -18 -14 -40 -4
-22 -10 -40 -15 -40 -4 0 -13 -27 -20 -60 -7 -33 -16 -60 -20 -60 -3 0 -13
-36 -20 -80 -7 -44 -17 -80 -21 -80 -5 0 -11 -27 -15 -60 -4 -33 -10 -60 -14
-60 -4 0 -13 -51 -20 -112 -7 -62 -16 -115 -20 -118 -12 -8 -30 -312 -30 -505
0 -193 18 -497 30 -505 4 -3 13 -56 20 -117 7 -62 16 -113 20 -113 4 0 10 -27
14 -60 4 -33 10 -60 15 -60 4 0 14 -36 21 -80 7 -44 17 -80 20 -80 4 0 13 -27
20 -60 7 -33 16 -60 21 -60 4 0 11 -21 15 -47 6 -41 4 -49 -15 -61 -11 -8 -21
-20 -21 -28 0 -7 -6 -17 -13 -21 -7 -4 -19 -23 -26 -40 -8 -18 -17 -33 -21
-33 -5 0 -11 -13 -15 -30 -4 -16 -10 -30 -14 -30 -4 0 -14 -19 -21 -42 -8 -24
-18 -46 -22 -49 -5 -3 -13 -34 -20 -70 -6 -35 -16 -67 -22 -71 -15 -10 -13
-511 3 -516 6 -2 11 -22 11 -45 0 -63 22 -261 30 -267 4 -3 13 -47 20 -97 7
-51 16 -93 20 -93 4 0 10 -23 13 -52 4 -28 10 -54 15 -57 5 -3 15 -36 22 -73
7 -38 15 -68 19 -68 4 0 13 -27 20 -60 8 -33 17 -60 21 -60 5 0 11 -18 15 -40
4 -22 10 -40 15 -40 4 0 13 -22 20 -50 7 -27 15 -50 19 -50 4 0 13 -22 20 -50
7 -28 17 -50 22 -50 5 0 11 -11 15 -25 3 -14 9 -25 13 -25 4 0 13 -22 20 -50
7 -27 16 -50 21 -50 4 0 14 -15 21 -32 7 -18 19 -39 26 -46 7 -7 13 -20 13
-28 0 -8 4 -14 8 -14 5 0 14 -16 22 -35 8 -19 16 -35 20 -35 3 0 12 -16 19
-35 7 -19 17 -35 22 -35 5 0 9 -7 9 -15 0 -9 6 -18 13 -21 8 -3 20 -20 27 -39
8 -19 18 -35 22 -35 5 0 13 -11 18 -25 5 -14 14 -25 20 -25 5 0 10 -6 10 -13
0 -7 9 -20 20 -30 11 -9 20 -23 20 -32 0 -8 9 -19 20 -25 11 -6 20 -17 20 -26
0 -8 7 -17 15 -20 8 -3 17 -15 21 -26 3 -11 21 -35 40 -52 19 -17 34 -35 34
-40 0 -5 18 -26 40 -47 l39 -38 -5 -83 c-3 -46 -7 -91 -9 -100 -5 -29 14 -251
23 -257 5 -3 15 -34 22 -68 7 -35 16 -63 20 -63 4 0 10 -18 14 -41 4 -23 13
-48 21 -56 8 -8 15 -25 15 -38 0 -13 6 -30 13 -37 7 -7 19 -34 26 -60 8 -27
17 -48 21 -48 4 0 11 -16 14 -35 4 -19 10 -35 15 -35 4 0 14 -18 21 -40 7 -22
16 -40 20 -40 4 0 12 -18 19 -40 6 -22 16 -40 21 -40 4 0 11 -13 15 -29 3 -16
12 -32 20 -34 7 -3 16 -19 20 -36 4 -17 10 -31 15 -31 4 0 13 -15 21 -32 7
-18 19 -37 26 -41 7 -4 13 -15 13 -22 0 -8 4 -15 9 -15 5 0 15 -16 22 -35 7
-19 17 -35 21 -35 5 0 13 -11 18 -25 5 -14 14 -25 20 -25 5 0 10 -7 10 -15 0
-9 6 -18 14 -21 8 -3 19 -18 26 -34 7 -16 18 -31 26 -34 8 -3 14 -10 14 -16 0
-6 13 -24 30 -40 17 -16 30 -33 30 -38 0 -5 11 -18 25 -30 14 -12 25 -26 25
-32 0 -5 25 -33 55 -63 30 -29 55 -57 55 -60 0 -9 187 -197 196 -197 11 0 64
-55 64 -66 0 -7 -27 -15 -65 -19 -36 -3 -65 -10 -65 -15 0 -5 -36 -12 -80 -16
-44 -3 -80 -10 -80 -13 0 -8 -257 -31 -342 -31 -32 0 -58 -4 -58 -10 0 -6 -88
-10 -245 -10 -157 0 -245 4 -245 10 0 6 -31 10 -72 10 -40 0 -126 5 -192 11
-120 10 -344 -3 -356 -21 -3 -4 -31 -13 -62 -20 -32 -7 -58 -17 -58 -21 0 -4
-14 -10 -30 -14 -17 -4 -30 -10 -30 -14 0 -4 -16 -13 -35 -20 -19 -7 -35 -16
-35 -21 0 -5 -15 -14 -34 -21 -19 -7 -40 -23 -47 -36 -7 -13 -18 -23 -25 -23
-16 0 -121 -104 -128 -128 -4 -11 -13 -23 -21 -26 -8 -3 -15 -12 -15 -21 0 -8
-5 -15 -10 -15 -6 0 -15 -11 -20 -25 -5 -14 -14 -25 -18 -25 -5 0 -15 -20 -22
-45 -7 -25 -17 -45 -21 -45 -5 0 -9 -9 -9 -19 0 -11 -6 -26 -14 -33 -7 -8 -19
-48 -27 -89 -7 -40 -17 -77 -23 -81 -15 -10 -13 -331 2 -336 7 -2 12 -14 12
-27 0 -36 22 -125 31 -125 5 0 11 -16 15 -35 3 -19 10 -35 14 -35 4 0 13 -18
20 -40 7 -22 16 -40 20 -40 4 0 12 -11 18 -25 13 -28 27 -47 54 -73 10 -9 18
-21 18 -26 0 -5 28 -36 63 -68 34 -31 71 -67 83 -78 12 -11 26 -20 31 -20 9 0
24 -11 71 -50 7 -6 26 -16 42 -22 17 -5 30 -13 30 -18 0 -4 14 -13 30 -20 16
-7 30 -16 30 -21 0 -5 6 -9 13 -9 8 0 24 -9 37 -20 13 -11 29 -20 37 -20 7 0
16 -6 19 -14 3 -8 25 -19 49 -26 24 -7 46 -18 49 -26 3 -8 12 -14 21 -14 8 0
15 -4 15 -8 0 -5 18 -15 39 -22 22 -7 42 -19 45 -25 2 -7 18 -16 35 -20 17 -4
31 -10 31 -15 0 -4 11 -11 25 -14 14 -4 25 -10 25 -15 0 -5 20 -14 45 -21 25
-7 45 -16 45 -20 0 -4 15 -14 33 -21 17 -7 38 -19 45 -26 7 -7 22 -13 33 -13
10 0 19 -4 19 -9 0 -4 20 -14 45 -21 25 -7 45 -16 45 -21 0 -4 18 -14 40 -20
22 -7 40 -15 40 -19 0 -5 11 -11 25 -14 14 -4 25 -11 25 -16 0 -6 8 -10 17
-10 23 0 83 -22 83 -31 0 -4 23 -12 50 -19 28 -7 50 -16 50 -20 0 -4 16 -11
35 -14 19 -4 35 -11 35 -16 0 -5 20 -15 45 -21 25 -6 45 -15 45 -19 0 -4 25
-13 55 -20 30 -7 55 -16 55 -20 0 -4 16 -11 35 -14 19 -4 35 -10 35 -15 0 -4
25 -13 55 -20 30 -7 55 -16 55 -21 0 -4 29 -14 65 -21 36 -7 65 -16 65 -20 0
-4 17 -10 37 -14 21 -4 40 -11 43 -15 3 -5 36 -15 73 -22 37 -7 67 -15 67 -19
0 -3 27 -12 60 -19 33 -7 60 -16 60 -21 0 -4 25 -11 55 -14 30 -4 55 -11 55
-15 0 -5 34 -14 75 -21 41 -6 75 -15 75 -19 0 -4 38 -13 85 -20 47 -7 85 -17
85 -21 0 -4 27 -10 60 -14 33 -4 60 -10 60 -14 0 -7 139 -31 182 -31 14 0 28
-4 30 -9 2 -6 54 -15 116 -22 61 -7 112 -16 112 -20 0 -4 36 -10 80 -14 44 -4
80 -11 80 -15 0 -4 80 -13 178 -20 97 -7 179 -16 182 -20 10 -14 449 -30 831
-30 378 0 839 16 849 30 3 4 85 13 183 20 97 7 177 16 177 20 0 5 43 11 95 15
52 4 95 11 95 15 0 4 52 13 115 20 63 7 115 16 115 21 0 5 12 9 27 9 46 0 183
24 183 32 0 4 27 10 60 14 33 4 60 10 60 14 0 4 21 10 48 14 26 4 66 9 90 13
23 3 42 9 42 14 0 4 34 13 75 20 41 6 75 15 75 19 0 4 23 10 50 14 28 4 50 10
50 15 0 4 32 13 70 20 39 7 70 16 70 20 0 4 29 13 65 20 36 7 65 17 65 21 0 4
20 11 45 14 25 4 45 11 45 15 0 5 27 14 60 21 33 7 60 16 60 20 0 4 25 13 55
20 30 7 55 17 55 21 0 4 18 10 40 14 22 4 40 10 40 15 0 4 23 13 50 20 28 7
50 15 50 19 0 4 25 14 55 21 30 7 55 16 55 21 0 4 11 10 25 13 14 4 25 11 25
16 0 6 9 10 20 10 19 0 71 20 80 31 3 3 26 11 53 19 26 7 47 16 47 21 0 5 11
11 25 15 14 3 25 10 25 14 0 4 23 13 50 20 28 7 50 15 50 19 0 4 18 14 40 21
22 7 40 17 40 21 0 4 14 10 30 14 17 4 30 11 30 15 0 5 18 15 40 21 22 7 40
15 40 19 0 5 10 10 23 14 13 3 34 15 47 26 13 11 29 20 37 20 7 0 13 4 13 8 0
5 18 14 40 21 22 6 40 16 40 21 0 4 16 14 35 20 19 6 35 16 35 21 0 5 7 9 15
9 9 0 18 6 21 14 3 8 19 18 36 21 16 4 32 13 35 20 2 8 18 17 35 20 16 4 32
13 35 20 2 8 18 17 34 20 16 4 29 11 29 16 0 5 11 14 25 19 14 5 25 14 25 19
0 5 14 12 31 16 17 4 33 13 36 21 3 8 11 14 19 14 7 0 17 6 21 13 4 6 22 19
38 27 17 8 34 21 38 27 4 7 14 13 21 13 7 0 22 8 34 17 11 10 30 25 43 33 12
8 30 22 38 30 9 8 30 22 46 30 17 8 39 24 50 35 11 11 34 27 50 35 17 8 36 23
43 33 7 9 18 17 24 17 6 0 21 11 34 25 13 14 27 25 32 25 4 0 18 11 30 25 12
14 27 25 33 25 6 0 26 15 45 33 56 53 74 67 98 78 13 6 30 22 37 35 6 13 22
27 33 30 12 4 37 24 57 45 20 22 39 39 44 39 4 0 30 23 57 50 27 28 53 50 57
50 5 0 58 50 119 110 60 61 113 110 116 110 9 0 166 158 166 167 0 3 41 46 90
95 50 49 90 92 90 96 0 5 26 36 58 70 31 34 75 82 97 107 22 25 54 62 72 81
17 19 35 43 38 54 4 11 15 25 26 30 10 6 19 15 19 21 0 5 14 23 30 39 17 16
30 34 30 39 0 5 11 19 25 32 13 13 25 27 25 32 0 4 7 15 16 25 33 37 64 77 64
84 0 4 13 22 30 40 46 51 54 61 70 93 8 17 21 34 27 38 7 4 13 12 13 17 0 6 9
19 20 30 11 11 20 27 20 35 0 8 5 15 10 15 6 0 15 11 20 25 5 14 14 25 20 25
5 0 10 7 10 15 0 7 6 18 13 22 6 4 19 22 27 38 8 17 20 33 27 38 6 4 14 20 18
36 3 16 13 32 21 35 8 3 14 12 14 21 0 8 5 15 11 15 5 0 15 14 20 30 6 17 15
30 19 30 4 0 13 14 19 30 5 17 14 30 20 30 5 0 12 13 16 29 3 16 12 32 20 34
7 3 16 19 20 36 4 17 10 31 13 31 4 0 14 15 21 33 8 17 20 37 25 44 28 32 34
42 47 76 7 20 16 37 20 37 4 0 10 14 14 31 4 17 13 33 20 35 7 3 16 16 19 30
4 13 10 24 15 24 5 0 14 20 21 45 7 25 16 45 21 45 4 0 14 18 20 40 7 22 15
40 19 40 5 0 11 11 14 25 4 14 10 25 15 25 5 0 14 20 21 45 7 25 16 45 21 45
4 0 14 18 20 40 7 22 15 40 19 40 4 0 11 16 14 35 4 19 11 35 15 35 5 0 15 20
22 45 7 25 16 45 20 45 3 0 12 20 19 45 7 25 16 45 20 45 4 0 11 16 14 35 4
19 10 35 14 35 4 0 14 20 21 45 7 25 16 45 21 45 4 0 13 25 20 55 7 30 16 55
20 55 4 0 11 16 14 35 4 19 10 35 15 35 4 0 13 25 20 55 7 30 16 55 20 55 5 0
14 27 21 60 7 33 16 60 20 60 4 0 11 20 14 45 4 25 11 45 15 45 4 0 14 26 21
58 7 31 16 59 21 62 4 3 14 36 21 73 7 37 16 67 19 67 4 0 10 18 14 40 4 22
10 40 14 40 4 0 13 34 20 75 7 41 16 75 20 75 4 0 14 38 21 85 7 47 17 85 21
85 4 0 10 24 14 53 4 28 11 54 16 57 4 3 13 46 20 95 7 50 16 92 20 95 5 3 14
51 20 105 6 55 15 102 20 105 5 3 11 38 15 78 4 40 10 72 14 72 4 0 13 61 20
135 7 74 16 135 20 135 4 0 13 87 20 193 7 105 17 194 21 198 5 3 12 123 15
267 4 144 11 262 16 262 4 0 8 13 8 28 0 27 31 72 50 72 6 0 36 27 68 60 33
33 62 60 66 60 13 0 446 445 446 459 0 3 8 14 18 23 32 30 62 66 62 74 0 5 16
22 35 38 19 16 35 34 35 40 0 6 12 22 25 35 14 13 25 28 25 35 1 6 14 22 30
36 17 13 30 30 30 37 0 7 9 17 20 23 11 6 20 17 20 25 0 9 9 23 20 32 11 10
20 23 20 30 0 7 5 13 10 13 6 0 15 11 20 25 5 14 14 25 19 25 5 0 12 8 16 19
5 16 16 31 55 78 5 7 10 17 10 22 0 5 8 16 18 23 11 7 25 31 32 53 7 22 19 44
26 48 8 4 14 17 14 27 0 11 4 20 9 20 5 0 15 23 22 50 7 28 16 50 20 50 9 0
29 139 29 205 0 30 5 55 10 55 6 0 10 9 10 20 0 11 -4 20 -10 20 -6 0 -10 27
-10 61 0 69 -20 199 -30 199 -4 0 -13 25 -20 55 -7 30 -17 55 -21 55 -4 0 -10
14 -14 30 -4 17 -10 30 -15 30 -4 0 -13 14 -20 30 -7 17 -16 30 -21 30 -4 0
-11 10 -15 22 -4 12 -21 37 -38 55 -17 18 -51 55 -76 83 -25 27 -49 50 -55 50
-5 0 -20 11 -32 24 -18 19 -22 31 -16 57 3 19 11 37 17 41 16 10 15 366 -1
376 -6 4 -15 31 -19 60 -4 29 -12 59 -19 66 -7 7 -16 27 -20 44 -3 18 -10 32
-14 32 -4 0 -13 18 -20 40 -6 22 -16 40 -20 40 -5 0 -14 14 -20 30 -5 17 -15
30 -20 30 -6 0 -11 7 -11 15 0 8 -9 19 -20 25 -11 6 -20 17 -20 24 0 15 -51
70 -95 101 -15 11 -37 30 -48 43 -11 12 -27 22 -34 22 -7 0 -13 4 -13 9 0 5
-15 14 -32 22 -18 7 -37 19 -41 26 -4 7 -15 13 -22 13 -8 0 -15 4 -15 9 0 5
-21 14 -47 21 -26 6 -50 16 -53 21 -4 5 -41 15 -83 21 -42 7 -77 16 -77 20 0
5 -70 8 -155 8 -85 0 -155 -4 -155 -8 0 -5 -35 -14 -77 -20 -42 -7 -80 -16
-83 -21 -3 -5 -25 -14 -49 -21 -24 -6 -50 -18 -58 -26 -8 -8 -21 -14 -29 -14
-8 0 -14 -4 -14 -9 0 -5 -16 -15 -35 -22 -19 -7 -35 -16 -35 -19 0 -4 -16 -12
-35 -20 -19 -8 -35 -17 -35 -21 0 -4 -11 -10 -25 -13 -14 -4 -25 -10 -25 -15
0 -5 -20 -14 -45 -21 -25 -7 -45 -16 -45 -21 0 -4 -18 -14 -40 -20 -22 -7 -40
-15 -40 -19 0 -5 -11 -11 -25 -14 -14 -4 -25 -10 -25 -15 0 -5 -22 -14 -50
-21 -27 -7 -50 -16 -50 -20 0 -4 -22 -13 -50 -20 -27 -7 -50 -16 -50 -20 0 -4
-16 -11 -35 -14 -19 -4 -35 -11 -35 -15 0 -5 -27 -14 -60 -21 -33 -7 -60 -16
-60 -20 0 -4 -26 -13 -57 -20 -32 -7 -61 -17 -66 -24 -5 -8 -11 -6 -18 7 -5 9
-17 17 -25 17 -8 0 -17 7 -20 15 -3 8 -14 17 -24 20 -10 3 -28 14 -41 25 -13
11 -28 23 -34 28 -5 4 -25 15 -42 22 -18 8 -33 18 -33 23 0 4 -11 12 -25 17
-14 5 -25 14 -25 19 0 5 -13 12 -29 16 -16 3 -32 12 -34 20 -3 7 -19 16 -36
20 -17 4 -31 10 -31 15 0 4 -13 13 -30 20 -16 7 -30 16 -30 20 0 5 -13 11 -30
15 -16 4 -30 10 -30 14 0 4 -18 14 -40 21 -22 7 -40 16 -40 20 0 4 -18 12 -40
19 -22 6 -40 16 -40 21 0 6 -11 10 -24 10 -14 0 -31 6 -38 13 -7 7 -34 19 -60
26 -27 8 -48 17 -48 21 0 4 -27 13 -60 20 -33 7 -60 16 -60 21 0 4 -16 11 -35
15 -19 3 -35 9 -35 13 0 3 -30 12 -67 19 -37 7 -70 17 -73 21 -3 5 -40 14 -82
21 -43 7 -78 16 -78 20 0 4 -29 11 -65 15 -36 3 -65 10 -65 15 0 4 -60 13
-132 20 -73 7 -136 17 -140 23 -6 10 -580 18 -728 10z m560 -931 c0 -5 46 -12
102 -16 56 -3 105 -10 108 -14 3 -5 48 -14 100 -21 52 -7 97 -17 100 -21 3 -4
35 -13 73 -20 37 -7 67 -16 67 -20 0 -5 18 -11 40 -15 22 -4 40 -11 40 -16 0
-5 7 -9 15 -9 23 0 95 -24 95 -31 0 -4 23 -12 50 -19 28 -7 50 -16 50 -20 0
-5 14 -11 30 -15 17 -4 30 -11 30 -15 0 -5 18 -15 40 -21 22 -7 40 -15 40 -19
0 -4 18 -13 39 -20 22 -7 42 -19 45 -26 3 -8 12 -14 21 -14 8 0 15 -4 15 -8 0
-5 16 -14 35 -22 19 -7 36 -19 39 -27 3 -7 12 -13 19 -13 8 0 23 -8 35 -17 11
-10 30 -25 43 -33 12 -8 31 -23 41 -32 10 -10 21 -18 26 -18 9 0 52 -34 98
-77 19 -18 37 -33 41 -33 3 0 46 -40 95 -90 72 -73 94 -90 118 -90 17 0 30 4
30 9 0 4 27 11 60 15 33 4 60 11 60 15 0 4 38 14 85 21 47 7 85 16 85 20 0 4
32 12 70 19 39 7 70 16 70 21 0 4 20 11 45 14 25 4 45 11 45 15 0 5 29 14 65
21 36 7 65 16 65 20 0 4 25 12 55 19 30 7 55 16 55 21 0 4 18 11 40 15 22 4
40 10 40 14 0 9 60 31 83 31 9 0 17 4 17 10 0 5 20 15 45 21 25 6 45 15 45 19
0 5 14 11 30 15 17 4 30 10 30 15 0 4 16 11 35 14 19 4 40 13 47 20 8 7 31 19
53 26 22 7 46 19 53 27 7 7 20 13 28 13 8 0 14 4 14 8 0 5 18 14 40 21 22 6
40 16 40 21 0 5 16 14 35 21 19 7 35 16 35 20 0 4 13 10 29 14 16 3 32 12 34
19 3 7 15 16 27 19 20 5 22 3 15 -31 -4 -20 -10 -39 -14 -42 -4 -3 -14 -27
-21 -55 -7 -27 -16 -52 -19 -55 -11 -9 -31 -61 -31 -80 0 -11 -4 -20 -10 -20
-5 0 -12 -11 -16 -25 -3 -14 -9 -25 -14 -25 -4 0 -12 -18 -19 -40 -6 -22 -15
-40 -20 -40 -4 0 -13 -16 -21 -35 -8 -19 -17 -35 -21 -35 -4 0 -10 -13 -14
-30 -4 -16 -11 -30 -16 -30 -5 0 -14 -11 -19 -25 -5 -14 -13 -25 -18 -25 -4 0
-14 -16 -22 -35 -7 -19 -19 -36 -27 -39 -7 -3 -13 -12 -13 -21 0 -8 -4 -15 -8
-15 -5 0 -15 -12 -23 -27 -8 -16 -22 -34 -31 -41 -10 -7 -18 -18 -18 -23 0 -6
-15 -25 -32 -43 -18 -18 -42 -46 -53 -61 -11 -16 -28 -36 -39 -44 -10 -9 -35
-33 -55 -54 -20 -22 -44 -46 -55 -55 -43 -39 -96 -96 -96 -104 0 -4 -7 -8 -15
-8 -8 0 -28 -12 -45 -27 -16 -16 -44 -40 -60 -55 -17 -16 -34 -28 -38 -28 -4
0 -20 -11 -36 -25 -17 -14 -40 -28 -52 -31 -12 -3 -25 -12 -28 -20 -3 -8 -12
-14 -21 -14 -8 0 -15 -5 -15 -10 0 -6 -11 -15 -25 -20 -30 -11 -33 -30 -5 -30
11 0 20 4 20 8 0 4 57 14 128 21 70 7 129 17 132 21 3 4 35 11 73 15 37 4 67
11 67 15 0 5 41 14 90 21 50 6 90 15 90 19 0 4 36 13 80 20 44 7 80 16 80 20
0 5 18 11 40 15 22 4 40 10 40 14 0 3 30 12 67 19 37 7 70 17 73 21 3 5 32 15
65 22 33 7 66 19 73 26 7 7 22 13 33 13 10 0 19 5 19 10 0 6 8 10 17 10 20 0
86 22 93 31 3 4 25 12 50 19 25 7 47 16 50 20 3 5 18 12 33 15 20 6 27 4 27
-8 0 -8 -7 -17 -15 -21 -8 -3 -15 -12 -15 -21 0 -8 -5 -15 -10 -15 -6 0 -15
-11 -20 -25 -5 -14 -13 -25 -18 -25 -5 0 -14 -11 -20 -25 -13 -28 -27 -47 -54
-73 -10 -9 -18 -21 -18 -27 0 -5 -12 -21 -25 -34 -14 -13 -25 -27 -25 -32 0
-8 -9 -19 -82 -99 -16 -17 -28 -37 -28 -45 0 -8 -4 -15 -8 -15 -12 0 -82 -68
-82 -80 0 -5 -36 -45 -80 -89 -44 -43 -80 -82 -80 -85 0 -9 -116 -126 -124
-126 -5 0 -46 -38 -92 -85 -47 -47 -88 -85 -92 -85 -4 0 -30 -20 -57 -45 -28
-25 -65 -59 -83 -75 -18 -17 -36 -30 -41 -30 -4 0 -17 -11 -29 -25 -12 -14
-28 -25 -35 -25 -6 0 -18 -9 -25 -20 -7 -11 -19 -20 -27 -20 -8 0 -15 -5 -15
-10 0 -6 -12 -16 -27 -23 -16 -6 -33 -18 -39 -26 -7 -9 -11 -144 -11 -409 -1
-221 -5 -398 -10 -401 -5 -3 -15 -100 -22 -216 -8 -115 -17 -212 -21 -215 -5
-3 -11 -47 -15 -98 -4 -50 -11 -92 -15 -92 -4 0 -13 -56 -20 -125 -8 -69 -17
-125 -21 -125 -4 0 -12 -45 -19 -100 -7 -55 -17 -100 -21 -100 -4 0 -11 -29
-14 -65 -4 -36 -11 -65 -15 -65 -4 0 -13 -36 -20 -80 -7 -44 -16 -80 -20 -80
-5 0 -14 -34 -21 -75 -6 -41 -15 -75 -20 -75 -4 0 -11 -21 -15 -47 -4 -27 -10
-50 -15 -53 -4 -3 -14 -36 -21 -73 -7 -37 -15 -67 -19 -67 -3 0 -12 -27 -19
-60 -7 -33 -16 -60 -20 -60 -5 0 -11 -18 -15 -40 -4 -22 -10 -40 -14 -40 -4 0
-13 -25 -20 -55 -7 -30 -16 -55 -20 -55 -4 0 -13 -25 -20 -55 -7 -30 -16 -55
-21 -55 -4 0 -11 -18 -15 -40 -4 -22 -10 -40 -15 -40 -4 0 -13 -23 -20 -50 -7
-27 -15 -50 -19 -50 -4 0 -13 -22 -20 -50 -7 -27 -16 -50 -21 -50 -4 0 -11
-16 -14 -35 -4 -19 -11 -35 -16 -35 -5 0 -15 -20 -21 -45 -6 -25 -15 -45 -19
-45 -4 0 -12 -18 -19 -40 -6 -22 -16 -40 -21 -40 -6 0 -10 -11 -10 -24 0 -14
-6 -31 -14 -39 -8 -7 -20 -33 -27 -55 -7 -23 -16 -42 -20 -42 -5 0 -14 -18
-20 -40 -7 -22 -15 -40 -19 -40 -5 0 -11 -11 -14 -25 -4 -14 -10 -25 -15 -25
-5 0 -14 -20 -21 -45 -7 -25 -16 -45 -20 -45 -4 0 -13 -14 -20 -30 -7 -16 -16
-30 -20 -30 -5 0 -11 -13 -15 -30 -4 -16 -10 -30 -14 -30 -4 0 -13 -16 -21
-35 -8 -19 -17 -35 -21 -35 -4 0 -9 -10 -13 -23 -3 -13 -15 -34 -26 -47 -11
-13 -20 -29 -20 -37 0 -7 -4 -13 -8 -13 -5 0 -14 -16 -22 -35 -7 -19 -19 -36
-26 -39 -7 -3 -15 -18 -19 -34 -3 -17 -13 -33 -21 -36 -8 -3 -14 -12 -14 -20
0 -7 -6 -16 -14 -19 -8 -3 -17 -19 -21 -36 -4 -17 -11 -31 -16 -31 -5 0 -14
-11 -19 -25 -5 -14 -14 -25 -20 -25 -5 0 -10 -6 -10 -13 0 -8 -9 -24 -20 -37
-11 -13 -20 -26 -20 -30 0 -4 -9 -17 -20 -30 -11 -13 -20 -29 -20 -36 0 -7 -9
-18 -20 -24 -11 -6 -20 -17 -20 -25 0 -8 -5 -15 -10 -15 -6 0 -15 -11 -20 -25
-10 -25 -19 -39 -52 -76 -10 -10 -18 -24 -18 -29 0 -6 -6 -13 -14 -16 -8 -3
-19 -18 -26 -34 -7 -16 -18 -31 -26 -34 -8 -3 -14 -11 -14 -19 0 -7 -13 -24
-30 -37 -16 -14 -29 -31 -30 -37 0 -7 -9 -18 -20 -25 -11 -7 -20 -18 -20 -25
0 -7 -17 -30 -37 -52 -65 -69 -93 -105 -93 -118 0 -7 -4 -13 -8 -13 -11 0 -43
-31 -67 -65 -11 -15 -46 -54 -77 -86 -32 -31 -58 -60 -58 -64 0 -9 -406 -415
-415 -415 -4 0 -33 -26 -64 -57 -32 -32 -71 -67 -86 -78 -34 -24 -65 -56 -65
-67 0 -4 -6 -8 -13 -8 -13 0 -55 -33 -114 -90 -17 -16 -36 -30 -42 -30 -6 0
-21 -11 -33 -25 -12 -14 -26 -25 -30 -25 -5 0 -19 -11 -32 -25 -13 -14 -28
-25 -34 -25 -6 0 -17 -8 -24 -17 -7 -10 -25 -24 -40 -32 -16 -8 -28 -18 -28
-23 0 -4 -7 -8 -15 -8 -8 0 -19 -9 -25 -20 -6 -11 -17 -20 -26 -20 -8 0 -17
-6 -20 -14 -3 -8 -16 -17 -30 -20 -13 -4 -37 -19 -53 -35 -16 -16 -43 -35 -60
-42 -17 -8 -31 -17 -31 -22 0 -4 -11 -12 -25 -17 -14 -5 -25 -14 -25 -20 0 -5
-6 -10 -13 -10 -8 0 -24 -9 -37 -20 -13 -11 -29 -20 -37 -20 -7 0 -16 -6 -19
-14 -3 -8 -19 -18 -36 -21 -16 -4 -32 -13 -35 -21 -3 -8 -12 -14 -19 -14 -8 0
-17 -6 -20 -14 -3 -8 -25 -19 -49 -26 -24 -7 -46 -18 -49 -25 -2 -7 -16 -15
-31 -19 -15 -4 -32 -11 -38 -17 -49 -40 -62 -49 -88 -54 -16 -4 -29 -10 -29
-13 0 -7 -48 -32 -62 -32 -8 0 -20 -8 -52 -37 -7 -6 -32 -17 -54 -24 -23 -7
-42 -16 -42 -20 0 -5 -18 -14 -40 -20 -22 -7 -40 -15 -40 -19 0 -4 -16 -11
-35 -14 -19 -4 -35 -11 -35 -16 0 -5 -18 -15 -40 -21 -22 -7 -40 -15 -40 -19
0 -4 -21 -13 -46 -19 -26 -7 -53 -18 -61 -26 -8 -8 -23 -15 -34 -15 -10 0 -19
-4 -19 -9 0 -5 -22 -14 -50 -21 -27 -7 -50 -16 -50 -20 0 -5 -25 -14 -55 -21
-30 -7 -55 -16 -55 -20 0 -5 -16 -11 -35 -15 -19 -3 -35 -10 -35 -14 0 -4 -25
-13 -55 -20 -30 -7 -55 -16 -55 -20 0 -4 -27 -13 -60 -20 -33 -7 -60 -16 -60
-21 0 -4 -20 -11 -45 -15 -25 -3 -45 -10 -45 -14 0 -4 -29 -14 -65 -21 -36 -7
-65 -16 -65 -20 0 -4 -31 -13 -70 -19 -38 -6 -70 -15 -70 -20 0 -4 -25 -11
-55 -15 -30 -3 -55 -10 -55 -14 0 -4 -38 -14 -85 -21 -47 -7 -85 -16 -85 -20
0 -4 -43 -13 -95 -21 -52 -7 -95 -16 -95 -20 0 -3 -30 -10 -67 -14 -38 -4 -70
-11 -73 -15 -3 -5 -57 -14 -120 -21 -63 -7 -117 -15 -120 -19 -6 -8 -205 -30
-267 -30 -24 0 -43 -4 -43 -9 0 -5 -62 -12 -137 -16 -84 -5 -141 -12 -145 -19
-10 -16 -1226 -16 -1236 0 -4 7 -59 14 -134 19 -71 4 -128 11 -128 16 0 5 -19
9 -42 9 -64 0 -262 22 -268 30 -3 4 -56 13 -117 20 -62 7 -113 16 -113 20 0 5
-31 11 -70 15 -38 4 -70 10 -70 14 0 4 -41 13 -90 20 -49 8 -90 17 -90 21 0 4
-36 13 -80 20 -44 7 -80 16 -80 20 0 4 -22 10 -50 14 -27 4 -50 10 -50 15 0 5
-34 14 -75 22 -41 7 -75 16 -75 20 0 3 -27 12 -60 19 -33 7 -60 16 -60 21 0 5
-22 11 -50 15 -27 4 -50 10 -50 15 0 4 -25 13 -55 20 -30 7 -55 15 -55 19 0 4
-25 12 -55 19 -30 7 -55 16 -55 21 0 4 -18 11 -40 15 -22 4 -40 10 -40 15 0 4
-22 13 -50 20 -27 7 -50 15 -50 19 0 4 -23 13 -52 21 -29 7 -58 19 -66 26 -7
8 -20 14 -28 14 -8 0 -14 4 -14 9 0 5 -22 14 -50 21 -27 7 -50 16 -50 20 0 4
-22 13 -50 20 -27 7 -50 16 -50 21 0 5 -11 11 -25 15 -14 3 -25 9 -25 14 0 4
-18 12 -40 19 -22 6 -40 16 -40 20 0 5 -20 14 -45 21 -25 7 -45 16 -45 21 0 5
-11 11 -25 15 -14 3 -25 9 -25 14 0 4 -18 12 -40 19 -22 6 -40 15 -40 20 0 4
-16 13 -35 21 -19 8 -35 17 -35 21 0 4 -14 10 -30 14 -17 4 -30 10 -30 15 0 5
-16 14 -35 20 -19 6 -35 15 -35 20 0 4 -14 13 -30 19 -17 5 -30 14 -30 20 0 5
-13 12 -29 16 -16 3 -32 12 -34 20 -3 7 -19 16 -35 20 -17 3 -33 12 -35 20 -3
7 -19 16 -35 20 -17 3 -33 13 -36 21 -3 8 -12 14 -21 14 -8 0 -15 5 -15 10 0
15 137 13 142 -2 7 -19 909 -19 915 0 3 7 22 12 46 12 70 0 302 23 307 30 3 4
56 13 118 20 61 7 112 16 112 20 0 4 27 10 60 14 33 4 60 11 60 16 0 6 10 10
22 10 31 0 142 23 148 31 3 4 38 12 78 19 39 6 72 15 72 20 0 4 23 11 50 15
28 4 50 10 50 15 0 4 27 13 60 20 33 7 60 16 60 20 0 4 25 12 55 19 30 7 55
16 55 21 0 4 18 11 40 15 22 4 40 10 40 15 0 4 23 13 50 20 28 7 50 16 50 20
0 4 20 13 45 19 25 6 45 16 45 21 0 5 16 12 35 16 19 3 35 10 35 14 0 4 20 13
45 20 25 7 45 16 45 21 0 4 18 14 40 20 22 7 40 15 40 19 0 5 11 11 25 14 14
4 25 10 25 15 0 5 20 14 45 21 25 7 45 16 45 21 0 4 17 13 38 20 20 6 41 18
45 25 4 8 15 14 22 14 8 0 15 4 15 8 0 4 16 14 35 21 19 7 35 16 35 21 0 4 10
10 23 14 13 3 34 15 47 26 13 11 29 20 37 20 7 0 13 4 13 9 0 5 14 14 30 21
17 7 30 16 30 20 0 4 15 13 33 21 17 7 36 19 40 26 4 7 15 13 22 13 8 0 15 5
15 10 0 6 11 15 25 20 14 5 25 13 25 17 0 5 14 15 32 22 18 8 42 25 54 38 12
13 26 23 32 23 6 0 17 8 24 18 7 9 25 23 40 31 54 28 43 41 -32 41 -40 0 -70
4 -70 10 0 6 -20 10 -45 10 -65 0 -249 21 -255 29 -3 4 -44 13 -92 21 -49 7
-88 17 -88 21 0 4 -20 11 -45 15 -25 3 -45 10 -45 14 0 4 -28 13 -62 20 -33 6
-67 18 -75 26 -8 8 -25 14 -38 14 -13 0 -30 6 -37 14 -8 7 -29 17 -46 21 -18
3 -32 10 -32 14 0 4 -18 13 -40 20 -22 6 -40 16 -40 20 0 5 -20 14 -45 21 -25
7 -45 16 -45 21 0 5 -11 11 -25 15 -14 3 -25 10 -25 14 0 4 -15 13 -32 21 -18
7 -36 18 -41 25 -4 7 -20 15 -36 19 -16 3 -32 13 -35 21 -3 8 -12 14 -21 14
-8 0 -15 5 -15 10 0 6 -12 16 -27 23 -16 6 -32 17 -36 24 -4 7 -13 13 -20 13
-7 0 -23 14 -37 30 -14 17 -30 30 -37 30 -6 0 -18 8 -25 18 -7 11 -23 24 -34
30 -25 13 -294 281 -294 292 0 4 -16 24 -35 43 -19 19 -35 40 -35 46 0 6 -9
15 -20 21 -11 6 -20 17 -20 26 0 8 -6 17 -14 20 -8 3 -19 19 -25 35 -5 16 -15
29 -20 29 -6 0 -11 7 -11 15 0 9 -6 18 -13 21 -8 3 -20 20 -27 39 -8 19 -17
35 -20 35 -3 0 -12 16 -20 35 -8 19 -17 35 -22 35 -4 0 -8 6 -8 13 0 8 -9 24
-20 37 -11 13 -23 34 -26 47 -4 13 -10 23 -14 23 -5 0 -14 22 -21 50 -7 27
-16 50 -20 50 -4 0 -10 11 -13 25 -4 14 -10 25 -15 25 -5 0 -15 25 -22 55 -7
30 -16 55 -20 55 -8 0 -33 99 -27 106 3 2 36 0 74 -6 38 -5 90 -10 117 -10 26
0 47 -4 47 -10 0 -6 85 -10 235 -10 150 0 235 4 235 10 0 6 18 10 40 10 60 0
244 22 250 30 3 4 34 12 69 18 94 17 98 29 12 39 -28 3 -51 9 -51 13 0 5 -31
14 -70 20 -38 6 -70 15 -70 20 0 4 -27 13 -60 20 -33 7 -60 16 -60 21 0 4 -16
11 -35 15 -19 3 -35 10 -35 14 0 5 -22 14 -50 21 -27 7 -50 16 -50 19 0 4 -18
13 -40 20 -22 7 -40 17 -40 21 0 4 -14 10 -30 14 -17 4 -30 10 -30 15 0 5 -16
14 -35 20 -19 6 -35 15 -35 20 0 4 -13 13 -30 19 -16 5 -30 14 -30 20 0 5 -14
12 -30 16 -17 4 -30 11 -30 16 0 5 -11 14 -25 19 -14 5 -25 14 -25 20 0 5 -7
10 -15 10 -8 0 -24 9 -35 20 -11 11 -24 20 -30 20 -5 0 -14 9 -20 20 -6 11
-17 20 -25 20 -9 0 -23 9 -32 20 -10 11 -21 20 -26 20 -5 0 -30 22 -57 50 -27
28 -52 50 -56 50 -4 0 -51 45 -103 100 -132 137 -151 159 -151 174 0 7 -11 18
-24 26 -14 7 -30 25 -36 41 -7 15 -18 30 -26 33 -8 3 -14 12 -14 21 0 8 -5 15
-10 15 -6 0 -15 11 -20 25 -5 14 -14 25 -19 25 -5 0 -11 10 -15 23 -3 13 -14
34 -26 48 -11 13 -23 29 -28 34 -4 6 -14 25 -21 43 -7 17 -17 32 -21 32 -5 0
-11 14 -15 31 -4 17 -13 33 -20 36 -8 2 -17 18 -20 34 -4 16 -10 29 -14 29 -4
0 -12 20 -19 45 -7 25 -16 45 -21 45 -5 0 -15 23 -22 50 -7 28 -16 50 -20 50
-4 0 -10 16 -13 35 -4 19 -11 35 -15 35 -5 0 -14 27 -21 60 -7 33 -16 60 -19
60 -4 0 -13 34 -20 75 -8 41 -17 75 -21 75 -5 0 -11 28 -15 63 -4 34 -11 64
-15 67 -9 6 -30 210 -30 288 0 29 -4 52 -10 52 -6 0 -10 37 -10 90 0 90 6 103
33 75 8 -7 26 -17 41 -21 14 -3 26 -9 26 -13 0 -5 18 -14 40 -21 22 -7 40 -16
40 -20 0 -3 23 -12 50 -19 28 -7 50 -16 50 -21 0 -4 16 -11 35 -14 19 -4 35
-10 35 -15 0 -4 26 -14 58 -21 31 -7 59 -16 62 -21 3 -4 36 -14 73 -21 37 -7
67 -16 67 -20 0 -4 27 -10 60 -14 33 -4 60 -10 60 -14 0 -7 167 -30 224 -30
20 0 36 -4 36 -10 0 -6 35 -10 85 -10 88 0 110 12 56 31 -16 6 -32 17 -35 25
-3 8 -11 14 -18 14 -7 0 -19 9 -26 20 -7 11 -17 20 -23 20 -6 0 -26 15 -44 33
-18 17 -46 41 -61 52 -15 11 -43 37 -63 58 -20 22 -44 46 -55 55 -39 36 -96
96 -96 102 0 4 -11 12 -24 19 -13 7 -29 24 -35 37 -11 24 -25 42 -79 98 -17
19 -32 38 -32 43 0 11 -28 49 -52 71 -10 9 -18 22 -18 30 0 7 -6 15 -14 18 -8
3 -18 19 -21 36 -4 16 -13 32 -21 35 -8 3 -14 11 -14 19 0 7 -6 17 -14 21 -7
4 -19 25 -25 46 -7 20 -16 37 -20 37 -5 0 -14 20 -21 45 -7 25 -16 45 -21 45
-5 0 -11 11 -15 25 -3 14 -10 25 -14 25 -5 0 -14 23 -21 50 -7 28 -16 50 -20
50 -4 0 -12 20 -18 45 -6 25 -15 45 -20 45 -5 0 -12 20 -15 45 -4 25 -11 45
-16 45 -4 0 -14 29 -21 65 -7 36 -16 65 -20 65 -4 0 -13 38 -20 85 -7 47 -15
85 -19 85 -4 0 -11 35 -15 78 -4 42 -12 80 -19 84 -16 10 -16 696 0 706 6 4
15 42 19 85 3 42 10 77 14 77 4 0 13 41 20 90 8 50 17 90 21 90 5 0 14 32 20
70 6 39 15 70 20 70 4 0 11 16 14 35 4 19 10 35 14 35 8 0 32 71 32 95 0 8 5
15 10 15 6 0 15 20 22 45 7 25 15 45 19 45 4 0 10 14 14 30 4 17 11 30 15 30
5 0 15 18 21 40 7 22 16 40 21 40 5 0 13 11 18 25 5 14 13 25 18 25 12 0 82
-68 82 -80 0 -6 18 -28 40 -49 22 -21 40 -42 40 -46 0 -5 24 -31 54 -59 29
-28 56 -61 60 -73 4 -13 11 -23 15 -23 7 0 65 -54 103 -96 9 -11 33 -35 55
-55 21 -20 45 -45 55 -55 9 -11 33 -35 55 -55 21 -20 46 -45 55 -55 9 -11 37
-39 62 -63 25 -24 46 -47 46 -51 0 -5 10 -12 23 -16 12 -4 45 -31 73 -60 28
-30 54 -54 59 -54 4 0 26 -18 47 -40 22 -22 44 -40 49 -40 5 0 24 -16 42 -35
17 -19 37 -35 42 -35 6 0 22 -13 35 -30 14 -16 30 -29 36 -30 6 0 20 -11 32
-25 12 -14 28 -25 37 -25 8 0 19 -9 25 -20 6 -11 17 -20 25 -20 8 0 15 -5 15
-10 0 -6 12 -16 28 -23 15 -6 33 -20 40 -29 7 -10 18 -18 23 -18 5 0 20 -10
32 -23 12 -12 36 -29 52 -37 17 -8 36 -23 43 -32 7 -10 18 -18 23 -18 5 0 15
-5 22 -10 47 -39 62 -50 78 -55 11 -4 19 -10 19 -14 0 -4 16 -13 35 -21 19 -7
36 -19 39 -27 3 -7 12 -13 21 -13 8 0 15 -5 15 -10 0 -6 11 -15 25 -20 14 -5
25 -14 25 -19 0 -5 14 -12 31 -16 17 -4 33 -13 36 -21 3 -8 12 -14 19 -14 8 0
17 -6 20 -14 3 -8 19 -18 36 -21 16 -4 32 -13 35 -20 2 -8 17 -17 33 -20 16
-3 38 -15 51 -26 12 -10 28 -19 36 -19 7 0 13 -4 13 -9 0 -5 14 -14 30 -20 17
-5 30 -14 30 -19 0 -5 20 -15 45 -22 25 -7 45 -16 45 -21 0 -5 11 -11 25 -15
14 -3 25 -9 25 -13 0 -4 16 -13 35 -21 19 -8 35 -17 35 -20 0 -4 18 -12 40
-19 22 -6 40 -16 40 -21 0 -4 14 -11 30 -15 17 -4 30 -10 30 -15 0 -4 20 -13
45 -19 25 -6 45 -15 45 -20 0 -4 19 -13 42 -20 22 -7 48 -19 55 -27 8 -8 25
-14 39 -14 13 0 24 -5 24 -10 0 -6 20 -15 45 -22 25 -7 45 -15 45 -19 0 -4 22
-13 50 -20 27 -7 50 -16 50 -20 0 -4 14 -11 32 -14 17 -4 37 -13 44 -20 7 -7
31 -15 54 -19 23 -4 48 -13 55 -20 8 -7 34 -17 60 -20 25 -4 45 -11 45 -15 0
-5 16 -12 35 -15 19 -4 35 -10 35 -15 0 -4 26 -14 58 -21 31 -7 59 -16 62 -21
3 -4 36 -14 73 -21 37 -7 67 -16 67 -19 0 -4 18 -10 40 -14 22 -4 40 -10 40
-14 0 -5 34 -14 75 -21 41 -7 75 -16 75 -21 0 -4 34 -13 75 -20 41 -6 75 -15
75 -19 0 -5 28 -11 63 -15 34 -4 64 -11 67 -16 3 -4 46 -13 95 -20 50 -7 93
-17 96 -21 3 -4 53 -13 112 -20 59 -6 107 -15 107 -19 0 -4 36 -11 80 -15 44
-3 80 -10 80 -14 0 -4 73 -13 163 -20 89 -7 164 -17 167 -21 7 -10 362 -27
380 -17 8 4 10 8 4 8 -10 0 -34 145 -34 208 0 17 -6 32 -12 35 -17 5 -19 644
-2 655 6 4 16 59 23 122 7 63 16 117 20 120 5 3 12 29 16 58 4 28 10 52 14 52
4 0 13 32 20 70 7 39 16 70 20 70 4 0 14 25 21 55 7 30 16 55 20 55 4 0 11 16
14 35 4 19 11 35 15 35 5 0 14 23 21 50 7 28 16 50 21 50 4 0 14 18 20 40 7
22 15 40 19 40 5 0 11 11 14 25 4 14 10 25 15 25 5 0 12 14 16 31 4 17 13 33
20 36 8 2 17 18 20 35 4 16 13 32 21 35 8 3 14 12 14 19 0 8 6 17 13 20 8 3
20 20 27 39 8 19 17 35 21 35 3 0 12 14 19 30 7 17 17 30 22 30 5 0 12 8 15
17 7 18 13 25 73 92 22 24 40 48 40 52 0 11 251 259 262 259 5 0 23 16 41 35
17 19 35 35 39 35 5 0 16 7 26 16 37 33 77 64 84 64 4 0 21 13 38 30 17 16 42
33 55 36 14 3 25 10 25 14 0 4 14 13 30 20 17 7 30 16 30 21 0 5 6 9 13 9 8 0
24 9 36 19 13 11 36 23 52 26 16 4 29 10 29 14 0 4 18 14 40 21 22 7 40 17 40
21 0 4 14 10 30 14 17 4 30 11 30 16 0 5 20 14 45 20 25 6 45 15 45 19 0 5 25
14 55 21 30 7 55 16 55 20 0 4 18 10 40 14 22 4 40 10 40 14 0 4 32 13 70 20
39 7 70 16 70 20 0 4 43 13 95 20 52 8 95 17 95 21 0 5 50 12 110 15 61 4 110
11 110 16 0 5 106 9 235 9 129 0 235 -4 235 -8z"/>
</g>
</svg>
