<svg xmlns="http://www.w3.org/2000/svg" viewBox="0 0 528.57 528.57"><defs><style>.cls-1{fill:none;stroke:#000;stroke-miterlimit:10;stroke-width:25px;}</style></defs><title>vk</title><g id="Layer_1" data-name="Layer 1"><circle class="cls-1" cx="264.28" cy="264.28" r="251.78"/></g><g id="Layer_3" data-name="Layer 3"><path class="cls-1" d="M483.35,588.93c-5.38-1-78.25,8.29-145.88-160.64a5.22,5.22,0,0,1,4.85-7.16h53.25a5.21,5.21,0,0,1,4.68,2.9c7.61,15.46,43.66,87.12,54.14,80.65,11.51-7.1,14-19.27,8.19-70.6a5.23,5.23,0,0,0-3.33-4.3L453,427.4c-7.2-3.33-6.08-5.36-1.1-9.18,3.49-2.67,11.71-7.17,24.52-8.05,25.81-1.77,51-8,51.17,28.76l.19,36.79s.39,54.19,30.72,5.87,20.15-64.37,52.63-64.76,75.91-5.68,49.5,31.5-66.52,63.58-37,84.91,64.76,64.56,32.28,64.37-60.65,9.19-98.61-33.46c0,0-21.32-24.85-28.17,5.28l-3,14.27a5.23,5.23,0,0,1-5.1,4.13Z" transform="translate(-236.13 -235.56)"/></g></svg>